# xmcd CD database file generated by Grip 3.3.1
# 
# Track frame offsets:
#       150
#       15819
#       28652
#       51354
#       76245
#       94883
#       117451
#       132066
#       146630
#       164611
#       192250
# 
# Disc length: 2783 seconds
# 
# Revision: 1
# Processed by: cddbd v1.5.2PL0 Copyright (c) Steve Scherf et al.
# Submitted via: Grip 3.3.1
# 
DISCID=8e0add0b
DTITLE=Phatfish - Higher
DYEAR=2011
DGENRE=Contemporary Christian
TTITLE0=Higher
TTITLE1=Life Extraordinary
TTITLE2=Faith Is Rising
TTITLE3=And Can It Be
TTITLE4=Resurrection Life
TTITLE5=Marriage Song
TTITLE6=In The Beginning
TTITLE7=Liar? Lunatic? Lord?
TTITLE8=Burn
TTITLE9=Come On My Boy
TTITLE10=Wait
EXTD=
EXTT0=
EXTT1=
EXTT2=
EXTT3=
EXTT4=
EXTT5=
EXTT6=
EXTT7=
EXTT8=
EXTT9=
EXTT10=
PLAYORDER=
